<?xml version="1.0" encoding="UTF-8" standalone="no"?>
<!-- Created with Inkscape (http://www.inkscape.org/) -->

<svg
   xmlns:dc="http://purl.org/dc/elements/1.1/"
   xmlns:cc="http://creativecommons.org/ns#"
   xmlns:rdf="http://www.w3.org/1999/02/22-rdf-syntax-ns#"
   xmlns:svg="http://www.w3.org/2000/svg"
   xmlns="http://www.w3.org/2000/svg"
   xmlns:sodipodi="http://sodipodi.sourceforge.net/DTD/sodipodi-0.dtd"
   xmlns:inkscape="http://www.inkscape.org/namespaces/inkscape"
   width="164.79761mm"
   height="164.79761mm"
   viewBox="0 0 164.79761 164.79761"
   version="1.1"
   id="svg8"
   inkscape:version="0.92.4 (5da689c313, 2019-01-14)"
   sodipodi:docname="reset_mobile.svg">
  <defs
     id="defs2" />
  <sodipodi:namedview
     id="base"
     pagecolor="#ffffff"
     bordercolor="#666666"
     borderopacity="1.0"
     inkscape:pageopacity="0.0"
     inkscape:pageshadow="2"
     inkscape:zoom="0.35"
     inkscape:cx="-518.57143"
     inkscape:cy="411.42854"
     inkscape:document-units="mm"
     inkscape:current-layer="layer1"
     showgrid="false"
     inkscape:snap-object-midpoints="true"
     inkscape:snap-center="true"
     fit-margin-top="0"
     fit-margin-left="0"
     fit-margin-right="0"
     fit-margin-bottom="0"
     inkscape:window-width="1920"
     inkscape:window-height="986"
     inkscape:window-x="-11"
     inkscape:window-y="-11"
     inkscape:window-maximized="1"
     inkscape:snap-bbox="true"
     inkscape:bbox-paths="true"
     inkscape:snap-others="false"
     inkscape:bbox-nodes="true"
     inkscape:snap-bbox-edge-midpoints="true" />
  <metadata
     id="metadata5">
    <rdf:RDF>
      <cc:Work
         rdf:about="">
        <dc:format>image/svg+xml</dc:format>
        <dc:type
           rdf:resource="http://purl.org/dc/dcmitype/StillImage" />
        <dc:title></dc:title>
      </cc:Work>
    </rdf:RDF>
  </metadata>
  <g
     inkscape:label="レイヤー 1"
     inkscape:groupmode="layer"
     id="layer1"
     transform="translate(-30.994047,-92.89286)">
    <path
       style="opacity:0.98999999;fill:#ffffff;fill-opacity:1;stroke:none;stroke-width:2.11666656;stroke-linecap:round;stroke-linejoin:round;stroke-miterlimit:4;stroke-dasharray:none;stroke-dashoffset:0;stroke-opacity:1"
       d="M 30.994047,92.89286 H 195.79165 V 257.69047 H 30.994047 Z"
       id="rect815" />
    <g
       aria-label="RESET"
       transform="matrix(0.40805141,0,0,0.46711133,587.62583,19.485181)"
       style="font-style:normal;font-variant:normal;font-weight:normal;font-stretch:normal;font-size:133.33334351px;line-height:0;font-family:sans-serif;-inkscape-font-specification:sans-serif;font-variant-ligatures:normal;font-variant-caps:normal;font-variant-numeric:normal;font-feature-settings:normal;text-align:start;letter-spacing:-4.46999979px;word-spacing:0px;writing-mode:lr-tb;text-anchor:start;fill:#000000;fill-opacity:1;stroke:none"
       id="flowRoot817">
      <path
         d="m -1283.9134,452.25993 h -16.7318 l -32.4219,-38.54167 h -18.164 v 38.54167 h -12.8906 v -96.94011 h 27.1484 q 8.7891,0 14.6484,1.17187 5.8594,1.10678 10.5469,4.03646 5.2734,3.32032 8.2031,8.39844 2.9948,5.01302 2.9948,12.76042 0,10.48177 -5.2734,17.57812 -5.2734,7.03126 -14.5182,10.61198 z m -30.1432,-69.66146 q 0,-4.16667 -1.4974,-7.35677 -1.4323,-3.25521 -4.8177,-5.46875 -2.7995,-1.88803 -6.6407,-2.60417 -3.8411,-0.78125 -9.0494,-0.78125 h -15.1693 v 36.58854 h 13.0208 q 6.1198,0 10.6771,-1.04166 4.5573,-1.10678 7.7474,-4.03646 2.9297,-2.73438 4.2969,-6.25 1.4323,-3.58073 1.4323,-9.04948 z"
         id="path825"
         inkscape:connector-curvature="0" />
      <path
         d="m -1212.0162,452.25993 h -63.8672 v -96.94011 h 63.8672 v 11.45833 h -50.9766 v 26.56251 h 50.9766 v 11.45833 h -50.9766 v 36.00261 h 50.9766 z"
         id="path827"
         inkscape:connector-curvature="0" />
      <path
         d="m -1125.5357,424.59066 q 0,5.66406 -2.6692,11.19792 -2.6042,5.53385 -7.3568,9.375 -5.2083,4.16666 -12.1745,6.51041 -6.901,2.34375 -16.6667,2.34375 -10.4817,0 -18.8802,-1.95312 -8.3333,-1.95313 -16.9922,-5.79427 v -16.14584 h 0.9115 q 7.3568,6.11979 16.9922,9.44011 9.6354,3.32031 18.0989,3.32031 11.9792,0 18.6198,-4.49219 6.7058,-4.49219 6.7058,-11.97917 0,-6.44531 -3.1901,-9.5052 -3.125,-3.0599 -9.5704,-4.75261 -4.8828,-1.30208 -10.6119,-2.14844 -5.6641,-0.84635 -12.0443,-2.14843 -12.8906,-2.73438 -19.1406,-9.3099 -6.1849,-6.64063 -6.1849,-17.25261 0,-12.17448 10.2864,-19.92187 10.2865,-7.8125 26.1068,-7.8125 10.2214,0 18.75,1.95312 8.5287,1.95313 15.1042,4.81771 v 15.23438 h -0.9115 q -5.5338,-4.6875 -14.5833,-7.7474 -8.9844,-3.125 -18.4245,-3.125 -10.3516,0 -16.6667,4.29688 -6.25,4.29687 -6.25,11.0677 0,6.05469 3.125,9.50521 3.125,3.45052 11.0026,5.27344 4.1667,0.91146 11.849,2.21354 7.6823,1.30209 13.0208,2.66927 10.8073,2.86459 16.2761,8.65886 5.4687,5.79427 5.4687,16.21094 z"
         id="path829"
         inkscape:connector-curvature="0" />
      <path
         d="m -1045.4354,452.25993 h -63.8671 v -96.94011 h 63.8671 v 11.45833 h -50.9765 v 26.56251 h 50.9765 v 11.45833 h -50.9765 v 36.00261 h 50.9765 z"
         id="path831"
         inkscape:connector-curvature="0" />
      <path
         d="m -960.2569,366.77815 h -34.63542 v 85.48178 h -12.89058 v -85.48178 h -34.6355 v -11.45833 h 82.1615 z"
         id="path833"
         inkscape:connector-curvature="0" />
    </g>
  </g>
</svg>
